<svg width="176" height="153" viewBox="0 0 176 153" fill="none" xmlns="http://www.w3.org/2000/svg">
<path d="M157.305 10.3248C138.896 -5.41527 111.518 -2.58408 94.6203 14.9087L88.0025 21.7508L81.3846 14.9087C64.5209 -2.58408 37.1089 -5.41527 18.6999 10.3248C-2.39658 28.3906 -3.50515 60.8145 15.3742 80.397L80.3768 147.739C84.576 152.087 91.3954 152.087 95.5945 147.739L160.597 80.397C179.51 60.8145 178.402 28.3906 157.305 10.3248Z" fill="#D90505"/>
<path d="M162.83 14.2692L162.005 13.4155C146.193 -2.63358 121.445 -4.23849 103.708 8.36176L115.498 43.6698L82.5003 65.5239L98.9994 109.232L49.5022 60.0603L82.5003 38.2063L72.6696 8.66908C54.8988 -4.23849 29.9096 -2.73602 13.9949 13.4497L13.17 14.2692C-3.56968 31.2744 -4.29152 58.353 10.6607 76.4851L83.5659 151.13C86.0064 153.623 89.9593 153.623 92.3997 151.13L165.339 76.4509C180.292 58.353 179.57 31.2744 162.83 14.2692Z" fill="white"/>
<path d="M70.1731 112.502L69.2593 112.868C77.1571 114.773 69.754 113.846 70.1731 112.502L69.2593 112.868C69.6783 111.524 68.6293 112.142 70.1731 112.502ZM49.3166 90.9609L55.5 79.5C56.596 78.4633 55.7369 75.4286 54.5 74.5L24.2658 61.0159L59.101 44.1999C60.3181 43.2456 60.3973 41.6128 59.2557 40.5995L48.6882 31.0019C47.595 30.0091 45.7659 29.9655 44.597 30.9402L10.2236 59.5466C9.00686 60.5427 9.02462 62.2373 10.262 63.2077L45.2276 91.1084C46.4166 92.0584 48.2447 91.9974 49.3166 90.9609ZM128.04 90.2614L162.413 61.6341C163.63 60.638 163.612 58.9434 162.375 57.973L127.409 30.0514C126.244 29.1221 124.416 29.1831 123.32 30.1989L120.5 43C119.404 44.0367 121.263 47.0714 122.5 48L147.937 58.9703L113.536 76.9808C112.319 77.9351 112.239 79.5679 113.381 80.5812L123.949 90.1788C125.042 91.1925 126.871 91.2152 128.04 90.2614Z" fill="#E11515"/>
</svg>
